<svg width="57" height="48" viewBox="0 0 57 48" fill="none" xmlns="http://www.w3.org/2000/svg">
<path d="M8.30466 25.9647H11.1689C12.9191 25.9647 14.1445 25.5986 14.8436 24.8674C15.384 24.263 15.6554 23.5153 15.6554 22.6241C15.6554 21.6062 15.3366 20.8111 14.7002 20.2375C14.0319 19.6651 12.8552 19.3784 11.1689 19.3784H8.30466V25.9647ZM0 32.4077V0.573181H20.7142V7.58972H8.30466V13.0788H11.5504C16.2917 13.0788 19.6477 14.1133 21.6208 16.1812C23.2431 17.8994 24.0548 20.0953 24.0548 22.7675C24.0548 25.4398 23.1803 27.7944 21.43 29.5447C19.4889 31.4538 16.1009 32.4089 11.2637 32.4089H0V32.4077Z" fill="black"/>
<path d="M39.3121 36.1287V45.9135C36.4171 46.9634 34.0304 47.4884 32.1533 47.4884C27.1893 47.4884 23.0855 45.8969 19.8397 42.7151C18.3122 41.1876 17.1189 39.4065 16.2598 37.3694C15.4326 35.3016 15.019 33.2171 15.019 31.1172C15.019 29.0174 15.448 26.7895 16.3072 24.7217C17.1983 22.6538 18.375 20.8715 19.8385 19.376C23.0843 16.0674 27.0933 14.4119 31.8666 14.4119C34.1892 14.4119 36.6706 14.9523 39.3121 16.0342V25.9138C37.435 23.5912 35.0329 22.4298 32.1047 22.4298C29.8461 22.4298 27.937 23.1302 26.3775 24.5297C24.5324 26.248 23.6093 28.4272 23.6093 31.0687C23.6093 33.7101 24.4684 35.65 26.1867 37.2735C27.7462 38.737 29.7181 39.4693 32.1047 39.4693C34.873 39.4693 37.275 38.3554 39.3121 36.1287Z" fill="black"/>
<path d="M56.9203 22.2272V32.012C54.0253 33.0619 51.6387 33.5869 49.7616 33.5869C44.7975 33.5869 40.6938 31.9954 37.448 28.8136C35.9205 27.2861 34.7272 25.505 33.868 23.4679C33.0409 21.4001 32.6273 19.3156 32.6273 17.2157C32.6273 15.1159 33.0563 12.888 33.9154 10.8202C34.8066 8.75228 35.9833 6.97001 37.4468 5.4745C40.6926 2.16591 44.7015 0.511616 49.4748 0.511616C51.7975 0.511616 54.2789 1.05199 56.9203 2.13392V12.0135C55.0433 9.69082 52.6412 8.5295 49.713 8.5295C47.4544 8.5295 45.5453 9.22985 43.9858 10.6294C42.1407 12.3477 41.2176 14.5269 41.2176 17.1683C41.2176 19.8098 42.0767 21.7496 43.795 23.3731C45.3545 24.8366 47.3264 25.569 49.713 25.569C52.4812 25.569 54.8833 24.4551 56.9203 22.2284V22.2272Z" fill="black"/>
</svg>
